<svg data-v-423bf9ae="" xmlns="http://www.w3.org/2000/svg" viewBox="0 0 241.82530446916655 60" class="font">
	<!---->
	<!---->
	<!---->
	<g data-v-423bf9ae="" id="d135e536-f1c1-4b07-aada-2085f7814cd2" fill="black"
		transform="matrix(5.888125419616699,0,0,5.888125419616699,-5.299314022064209,-22.257112503051758)">
		<path
			d="M0.90 7.94L0.90 9.81C0.90 12.45 2.30 13.97 4.68 13.97C6.83 13.97 8.18 12.67 8.18 10.51L8.18 10.28L7.42 10.28L7.42 10.51C7.42 12.28 6.57 13.30 4.68 13.30C2.77 13.30 1.65 12.03 1.65 9.84L1.65 7.91C1.65 5.73 2.74 4.45 4.68 4.45C6.44 4.45 7.42 5.52 7.42 7.28L7.42 7.48L8.18 7.48L8.18 7.28C8.18 5.12 6.96 3.78 4.68 3.78C2.34 3.78 0.90 5.31 0.90 7.94ZM10.08 3.98L10.08 13.78L10.78 13.78L10.78 10.22C10.78 8.29 11.89 7.34 13.33 7.34C14.63 7.34 15.48 7.98 15.48 9.52L15.48 13.78L16.18 13.78L16.18 9.46C16.18 7.57 14.90 6.69 13.47 6.69C12.04 6.69 11.33 7.41 10.95 8.12L10.78 8.12L10.78 3.98ZM18.09 8.82L18.70 9.10C19.21 8.04 19.96 7.28 21.35 7.28C22.76 7.28 23.60 8.04 23.60 9.23L23.60 9.81L20.40 10.11C19.10 10.23 18.03 10.81 18.03 11.94C18.03 13.20 19.07 13.97 20.61 13.97C22.25 13.97 23.06 13.19 23.44 12.45L23.60 12.45L23.60 13.78L24.30 13.78L24.30 9.28C24.30 7.67 23.23 6.64 21.38 6.64C19.63 6.64 18.56 7.73 18.09 8.82ZM18.73 11.97C18.73 11.27 19.33 10.81 20.54 10.70L23.60 10.42L23.60 10.53C23.60 12.33 22.34 13.36 20.64 13.36C19.50 13.36 18.73 12.88 18.73 11.97ZM25.56 6.83L25.56 7.45L27.89 7.45L27.89 12.85C27.89 13.44 28.22 13.78 28.78 13.78L30.63 13.78L30.63 13.16L28.98 13.16C28.73 13.16 28.59 13.02 28.59 12.74L28.59 7.45L31.02 7.45L31.02 6.83L28.59 6.83L28.59 4.40L27.89 4.40L27.89 6.83ZM32.37 4.80C32.37 5.21 32.66 5.52 33.08 5.52C33.50 5.52 33.80 5.21 33.80 4.80C33.80 4.40 33.50 4.09 33.08 4.09C32.66 4.09 32.37 4.40 32.37 4.80ZM33.43 6.83L32.73 6.83L32.73 13.78L33.43 13.78ZM35.28 10.30C35.28 12.45 36.82 13.97 38.79 13.97C40.54 13.97 41.71 12.82 41.97 11.35L41.27 11.21C41.06 12.45 40.25 13.33 38.79 13.33C37.21 13.33 36.01 12.04 36.01 10.30C36.01 8.57 37.20 7.28 38.78 7.28C40.12 7.28 41.08 8.11 41.23 9.38L41.93 9.24C41.71 7.80 40.49 6.64 38.78 6.64C36.82 6.64 35.28 8.16 35.28 10.30Z">
		</path>
	</g>
	<!---->
	<!---->
</svg>