<svg data-v-fde0c5aa="" xmlns="http://www.w3.org/2000/svg" class="iconAbove" viewBox="0 0 275 275"><rect data-v-fde0c5aa="" fill="transparent" x="0" y="0" class="logo-background-square" height="275px" width="275px"/><defs><linearGradient data-v-fde0c5aa="" gradientTransform="rotate(25)" id="e6b783c6-acb7-4515-986b-d4046a677c3b" x1="0%" y1="0%" x2="100%" y2="0%"><stop data-v-fde0c5aa="" offset="0%" stop-color="#01648B" stop-opacity="1"/><stop data-v-fde0c5aa="" offset="100%" stop-color="#5BD0A4" stop-opacity="1"/></linearGradient></defs><g data-v-fde0c5aa="" id="2a3d2d99-bd12-47c2-a07a-8c49f5eb9ad7" stroke="none" fill="url(#e6b783c6-acb7-4515-986b-d4046a677c3b)" transform="matrix(1.3466665744781494,0,0,1.3466665744781494,82.66667180379193,40.00000770568788)"><path d="M74.988 37.5c0 13.807-11.182 25-24.988 25C50 55.604 44.396 50 37.5 50H24.988C12.5 50 0 42.969 0 25 0 6.641 12.5 0 24.988 0H50c12.5 0 24.988 7.745 24.988 25v12.5z"/><path d="M81.189 38.165C80.822 55.078 66.992 68.75 50 68.75h-6.25V62.5a6.259 6.259 0 0 0-6.25-6.25H25.623a31.336 31.336 0 0 0-.635 6.25V75c0 13.807 11.205 25 25.012 25 0-6.909 5.604-12.5 12.5-12.5h12.488C87.5 87.5 100 80.469 100 62.5c0-15.289-8.703-22.375-18.811-24.335z"/></g><!----></svg>