<svg data-v-423bf9ae="" xmlns="http://www.w3.org/2000/svg" viewBox="0 0 100 100" class="iconAbove"><!----><!----><!---->
    <g data-v-423bf9ae="" stroke="none" fill="black">
        <path d="M74.988 37.5c0 13.807-11.182 25-24.988 25C50 55.604 44.396 50 37.5 50H24.988C12.5 50 0 42.969 0 25 0 6.641 12.5 0 24.988 0H50c12.5 0 24.988 7.745 24.988 25v12.5z"></path><path d="M81.189 38.165C80.822 55.078 66.992 68.75 50 68.75h-6.25V62.5a6.259 6.259 0 0 0-6.25-6.25H25.623a31.336 31.336 0 0 0-.635 6.25V75c0 13.807 11.205 25 25.012 25 0-6.909 5.604-12.5 12.5-12.5h12.488C87.5 87.5 100 80.469 100 62.5c0-15.289-8.703-22.375-18.811-24.335z">
        </path>
    </g><!---->
</svg>